<mxfile host="app.diagrams.net" modified="2023-07-04T13:04:54.130Z" agent="Mozilla/5.0 (Windows NT 10.0; Win64; x64; rv:109.0) Gecko/20100101 Firefox/114.0" etag="S3NaTkVBxCNXCPRBL_ok" version="21.5.2" type="device">
  <diagram id="C5RBs43oDa-KdzZeNtuy" name="Page-1">
    <mxGraphModel dx="1434" dy="782" grid="1" gridSize="10" guides="1" tooltips="1" connect="1" arrows="1" fold="1" page="1" pageScale="1" pageWidth="827" pageHeight="1169" math="0" shadow="0">
      <root>
        <mxCell id="WIyWlLk6GJQsqaUBKTNV-0" />
        <mxCell id="WIyWlLk6GJQsqaUBKTNV-1" parent="WIyWlLk6GJQsqaUBKTNV-0" />
        <mxCell id="WIyWlLk6GJQsqaUBKTNV-2" value="" style="rounded=0;html=1;jettySize=auto;orthogonalLoop=1;fontSize=11;endArrow=block;endFill=0;endSize=8;strokeWidth=1;shadow=0;labelBackgroundColor=none;edgeStyle=orthogonalEdgeStyle;entryX=0.5;entryY=0;entryDx=0;entryDy=0;" parent="WIyWlLk6GJQsqaUBKTNV-1" source="WIyWlLk6GJQsqaUBKTNV-3" target="2DU7lZWCWaiC0nGolhyL-0" edge="1">
          <mxGeometry relative="1" as="geometry" />
        </mxCell>
        <mxCell id="WIyWlLk6GJQsqaUBKTNV-3" value="Application Start" style="rounded=1;whiteSpace=wrap;html=1;fontSize=12;glass=0;strokeWidth=1;shadow=0;" parent="WIyWlLk6GJQsqaUBKTNV-1" vertex="1">
          <mxGeometry x="230" y="35" width="100" height="40" as="geometry" />
        </mxCell>
        <mxCell id="WIyWlLk6GJQsqaUBKTNV-5" value="" style="edgeStyle=orthogonalEdgeStyle;rounded=0;html=1;jettySize=auto;orthogonalLoop=1;fontSize=11;endArrow=block;endFill=0;endSize=8;strokeWidth=1;shadow=0;labelBackgroundColor=none;exitX=0.5;exitY=1;exitDx=0;exitDy=0;entryX=0.5;entryY=0;entryDx=0;entryDy=0;" parent="WIyWlLk6GJQsqaUBKTNV-1" source="WIyWlLk6GJQsqaUBKTNV-7" target="WIyWlLk6GJQsqaUBKTNV-6" edge="1">
          <mxGeometry y="10" relative="1" as="geometry">
            <mxPoint as="offset" />
            <mxPoint x="170" y="245" as="targetPoint" />
          </mxGeometry>
        </mxCell>
        <mxCell id="2DU7lZWCWaiC0nGolhyL-7" style="edgeStyle=orthogonalEdgeStyle;rounded=0;orthogonalLoop=1;jettySize=auto;html=1;exitX=1;exitY=0.5;exitDx=0;exitDy=0;entryX=0;entryY=0.5;entryDx=0;entryDy=0;" edge="1" parent="WIyWlLk6GJQsqaUBKTNV-1" source="WIyWlLk6GJQsqaUBKTNV-6" target="2DU7lZWCWaiC0nGolhyL-2">
          <mxGeometry relative="1" as="geometry" />
        </mxCell>
        <mxCell id="2DU7lZWCWaiC0nGolhyL-8" value="&lt;div&gt;&lt;font color=&quot;#ff8000&quot;&gt;Options&lt;/font&gt;&lt;/div&gt;" style="edgeLabel;html=1;align=center;verticalAlign=middle;resizable=0;points=[];" vertex="1" connectable="0" parent="2DU7lZWCWaiC0nGolhyL-7">
          <mxGeometry x="-0.0419" relative="1" as="geometry">
            <mxPoint y="-15" as="offset" />
          </mxGeometry>
        </mxCell>
        <mxCell id="2DU7lZWCWaiC0nGolhyL-9" style="edgeStyle=orthogonalEdgeStyle;rounded=0;orthogonalLoop=1;jettySize=auto;html=1;exitX=0.5;exitY=1;exitDx=0;exitDy=0;entryX=0.5;entryY=0;entryDx=0;entryDy=0;" edge="1" parent="WIyWlLk6GJQsqaUBKTNV-1" source="WIyWlLk6GJQsqaUBKTNV-6" target="WIyWlLk6GJQsqaUBKTNV-10">
          <mxGeometry relative="1" as="geometry" />
        </mxCell>
        <mxCell id="2DU7lZWCWaiC0nGolhyL-10" value="&lt;div&gt;&lt;font color=&quot;#ff8000&quot;&gt;Play&lt;/font&gt;&lt;/div&gt;" style="edgeLabel;html=1;align=center;verticalAlign=middle;resizable=0;points=[];" vertex="1" connectable="0" parent="2DU7lZWCWaiC0nGolhyL-9">
          <mxGeometry x="-0.1937" y="-1" relative="1" as="geometry">
            <mxPoint x="21" y="-3" as="offset" />
          </mxGeometry>
        </mxCell>
        <mxCell id="2DU7lZWCWaiC0nGolhyL-12" style="edgeStyle=orthogonalEdgeStyle;rounded=0;orthogonalLoop=1;jettySize=auto;html=1;exitX=0;exitY=0.5;exitDx=0;exitDy=0;entryX=1;entryY=0.5;entryDx=0;entryDy=0;" edge="1" parent="WIyWlLk6GJQsqaUBKTNV-1" source="WIyWlLk6GJQsqaUBKTNV-6" target="2DU7lZWCWaiC0nGolhyL-11">
          <mxGeometry relative="1" as="geometry" />
        </mxCell>
        <mxCell id="2DU7lZWCWaiC0nGolhyL-14" value="&lt;div&gt;&lt;font color=&quot;#ff8000&quot;&gt;Quit&lt;/font&gt;&lt;/div&gt;" style="edgeLabel;html=1;align=center;verticalAlign=middle;resizable=0;points=[];" vertex="1" connectable="0" parent="2DU7lZWCWaiC0nGolhyL-12">
          <mxGeometry x="-0.0952" relative="1" as="geometry">
            <mxPoint y="-15" as="offset" />
          </mxGeometry>
        </mxCell>
        <mxCell id="WIyWlLk6GJQsqaUBKTNV-6" value="&lt;div&gt;&lt;font color=&quot;#ff8000&quot;&gt;Main Menu Choices&lt;br&gt;&lt;/font&gt;&lt;/div&gt;" style="rhombus;whiteSpace=wrap;html=1;shadow=0;fontFamily=Helvetica;fontSize=12;align=center;strokeWidth=1;spacing=6;spacingTop=-4;" parent="WIyWlLk6GJQsqaUBKTNV-1" vertex="1">
          <mxGeometry x="230" y="275" width="100" height="80" as="geometry" />
        </mxCell>
        <mxCell id="WIyWlLk6GJQsqaUBKTNV-7" value="&lt;div&gt;Main Menu&lt;/div&gt;" style="rounded=1;whiteSpace=wrap;html=1;fontSize=12;glass=0;strokeWidth=1;shadow=0;" parent="WIyWlLk6GJQsqaUBKTNV-1" vertex="1">
          <mxGeometry x="230" y="195" width="100" height="40" as="geometry" />
        </mxCell>
        <mxCell id="WIyWlLk6GJQsqaUBKTNV-8" value="" style="rounded=0;html=1;jettySize=auto;orthogonalLoop=1;fontSize=11;endArrow=block;endFill=0;endSize=8;strokeWidth=1;shadow=0;labelBackgroundColor=none;edgeStyle=orthogonalEdgeStyle;exitX=1;exitY=0.5;exitDx=0;exitDy=0;entryX=0;entryY=0.5;entryDx=0;entryDy=0;" parent="WIyWlLk6GJQsqaUBKTNV-1" source="WIyWlLk6GJQsqaUBKTNV-10" target="WIyWlLk6GJQsqaUBKTNV-11" edge="1">
          <mxGeometry x="0.3333" y="20" relative="1" as="geometry">
            <mxPoint as="offset" />
          </mxGeometry>
        </mxCell>
        <mxCell id="2DU7lZWCWaiC0nGolhyL-24" value="&lt;font color=&quot;#ff8000&quot;&gt;No&lt;/font&gt;" style="edgeLabel;html=1;align=center;verticalAlign=middle;resizable=0;points=[];" vertex="1" connectable="0" parent="WIyWlLk6GJQsqaUBKTNV-8">
          <mxGeometry x="-0.1667" y="-1" relative="1" as="geometry">
            <mxPoint y="-11" as="offset" />
          </mxGeometry>
        </mxCell>
        <mxCell id="WIyWlLk6GJQsqaUBKTNV-9" value="&lt;font color=&quot;#ff8000&quot;&gt;Yes&lt;/font&gt;" style="edgeStyle=orthogonalEdgeStyle;rounded=0;html=1;jettySize=auto;orthogonalLoop=1;fontSize=11;endArrow=block;endFill=0;endSize=8;strokeWidth=1;shadow=0;labelBackgroundColor=none;exitX=0.5;exitY=1;exitDx=0;exitDy=0;" parent="WIyWlLk6GJQsqaUBKTNV-1" source="WIyWlLk6GJQsqaUBKTNV-10" target="WIyWlLk6GJQsqaUBKTNV-12" edge="1">
          <mxGeometry x="-0.5" y="20" relative="1" as="geometry">
            <mxPoint as="offset" />
          </mxGeometry>
        </mxCell>
        <mxCell id="WIyWlLk6GJQsqaUBKTNV-10" value="&lt;font color=&quot;#ff8000&quot;&gt;Save File Found?&lt;/font&gt;" style="rhombus;whiteSpace=wrap;html=1;shadow=0;fontFamily=Helvetica;fontSize=12;align=center;strokeWidth=1;spacing=6;spacingTop=-4;" parent="WIyWlLk6GJQsqaUBKTNV-1" vertex="1">
          <mxGeometry x="230" y="400" width="100" height="80" as="geometry" />
        </mxCell>
        <mxCell id="WIyWlLk6GJQsqaUBKTNV-11" value="&lt;font color=&quot;#3333ff&quot;&gt;Start New Game&lt;/font&gt;" style="rounded=1;whiteSpace=wrap;html=1;fontSize=12;glass=0;strokeWidth=1;shadow=0;" parent="WIyWlLk6GJQsqaUBKTNV-1" vertex="1">
          <mxGeometry x="380" y="420" width="110" height="40" as="geometry" />
        </mxCell>
        <mxCell id="2DU7lZWCWaiC0nGolhyL-16" style="edgeStyle=orthogonalEdgeStyle;rounded=0;orthogonalLoop=1;jettySize=auto;html=1;exitX=1;exitY=0.5;exitDx=0;exitDy=0;entryX=0;entryY=0.5;entryDx=0;entryDy=0;" edge="1" parent="WIyWlLk6GJQsqaUBKTNV-1" source="WIyWlLk6GJQsqaUBKTNV-12" target="2DU7lZWCWaiC0nGolhyL-15">
          <mxGeometry relative="1" as="geometry" />
        </mxCell>
        <mxCell id="WIyWlLk6GJQsqaUBKTNV-12" value="Play Menu" style="rounded=1;whiteSpace=wrap;html=1;fontSize=12;glass=0;strokeWidth=1;shadow=0;" parent="WIyWlLk6GJQsqaUBKTNV-1" vertex="1">
          <mxGeometry x="230" y="520" width="100" height="40" as="geometry" />
        </mxCell>
        <mxCell id="2DU7lZWCWaiC0nGolhyL-0" value="&lt;div&gt;Any Key Screen&lt;/div&gt;" style="rounded=1;whiteSpace=wrap;html=1;fontSize=12;glass=0;strokeWidth=1;shadow=0;" vertex="1" parent="WIyWlLk6GJQsqaUBKTNV-1">
          <mxGeometry x="230" y="115" width="100" height="40" as="geometry" />
        </mxCell>
        <mxCell id="2DU7lZWCWaiC0nGolhyL-1" value="" style="rounded=0;html=1;jettySize=auto;orthogonalLoop=1;fontSize=11;endArrow=block;endFill=0;endSize=8;strokeWidth=1;shadow=0;labelBackgroundColor=none;edgeStyle=orthogonalEdgeStyle;exitX=0.5;exitY=1;exitDx=0;exitDy=0;entryX=0.5;entryY=0;entryDx=0;entryDy=0;" edge="1" parent="WIyWlLk6GJQsqaUBKTNV-1" source="2DU7lZWCWaiC0nGolhyL-0" target="WIyWlLk6GJQsqaUBKTNV-7">
          <mxGeometry relative="1" as="geometry">
            <mxPoint x="279.74" y="155" as="sourcePoint" />
            <mxPoint x="280" y="185" as="targetPoint" />
          </mxGeometry>
        </mxCell>
        <mxCell id="2DU7lZWCWaiC0nGolhyL-36" style="edgeStyle=orthogonalEdgeStyle;rounded=0;orthogonalLoop=1;jettySize=auto;html=1;exitX=0.75;exitY=1;exitDx=0;exitDy=0;entryX=0.75;entryY=0;entryDx=0;entryDy=0;" edge="1" parent="WIyWlLk6GJQsqaUBKTNV-1" source="2DU7lZWCWaiC0nGolhyL-2" target="2DU7lZWCWaiC0nGolhyL-4">
          <mxGeometry relative="1" as="geometry" />
        </mxCell>
        <mxCell id="2DU7lZWCWaiC0nGolhyL-2" value="&lt;div&gt;Options Menu&lt;/div&gt;" style="rounded=1;whiteSpace=wrap;html=1;fontSize=12;glass=0;strokeWidth=1;shadow=0;" vertex="1" parent="WIyWlLk6GJQsqaUBKTNV-1">
          <mxGeometry x="380" y="295" width="110" height="40" as="geometry" />
        </mxCell>
        <mxCell id="2DU7lZWCWaiC0nGolhyL-34" style="edgeStyle=orthogonalEdgeStyle;rounded=0;orthogonalLoop=1;jettySize=auto;html=1;exitX=0.25;exitY=0;exitDx=0;exitDy=0;entryX=0.25;entryY=1;entryDx=0;entryDy=0;" edge="1" parent="WIyWlLk6GJQsqaUBKTNV-1" source="2DU7lZWCWaiC0nGolhyL-4" target="2DU7lZWCWaiC0nGolhyL-2">
          <mxGeometry relative="1" as="geometry" />
        </mxCell>
        <mxCell id="2DU7lZWCWaiC0nGolhyL-4" value="&lt;div&gt;Keybind Menu&lt;/div&gt;" style="rounded=1;whiteSpace=wrap;html=1;fontSize=12;glass=0;strokeWidth=1;shadow=0;" vertex="1" parent="WIyWlLk6GJQsqaUBKTNV-1">
          <mxGeometry x="380" y="355" width="110" height="40" as="geometry" />
        </mxCell>
        <mxCell id="2DU7lZWCWaiC0nGolhyL-11" value="&lt;div&gt;&lt;font color=&quot;#3333ff&quot;&gt;Exit Game&lt;/font&gt;&lt;/div&gt;" style="rounded=1;whiteSpace=wrap;html=1;fontSize=12;glass=0;strokeWidth=1;shadow=0;" vertex="1" parent="WIyWlLk6GJQsqaUBKTNV-1">
          <mxGeometry x="120" y="295" width="70" height="40" as="geometry" />
        </mxCell>
        <mxCell id="2DU7lZWCWaiC0nGolhyL-17" style="edgeStyle=orthogonalEdgeStyle;rounded=0;orthogonalLoop=1;jettySize=auto;html=1;exitX=0.5;exitY=0;exitDx=0;exitDy=0;entryX=0.5;entryY=1;entryDx=0;entryDy=0;" edge="1" parent="WIyWlLk6GJQsqaUBKTNV-1" source="2DU7lZWCWaiC0nGolhyL-15" target="WIyWlLk6GJQsqaUBKTNV-11">
          <mxGeometry relative="1" as="geometry" />
        </mxCell>
        <mxCell id="2DU7lZWCWaiC0nGolhyL-18" value="&lt;font color=&quot;#ff8000&quot;&gt;New Game&lt;/font&gt;" style="edgeLabel;html=1;align=center;verticalAlign=middle;resizable=0;points=[];" vertex="1" connectable="0" parent="2DU7lZWCWaiC0nGolhyL-17">
          <mxGeometry x="-0.0385" y="-2" relative="1" as="geometry">
            <mxPoint x="33" y="-1" as="offset" />
          </mxGeometry>
        </mxCell>
        <mxCell id="2DU7lZWCWaiC0nGolhyL-20" style="edgeStyle=orthogonalEdgeStyle;rounded=0;orthogonalLoop=1;jettySize=auto;html=1;exitX=1;exitY=0.5;exitDx=0;exitDy=0;entryX=0;entryY=0.5;entryDx=0;entryDy=0;" edge="1" parent="WIyWlLk6GJQsqaUBKTNV-1" source="2DU7lZWCWaiC0nGolhyL-15" target="2DU7lZWCWaiC0nGolhyL-19">
          <mxGeometry relative="1" as="geometry" />
        </mxCell>
        <mxCell id="2DU7lZWCWaiC0nGolhyL-25" value="&lt;div&gt;&lt;font color=&quot;#ff8000&quot;&gt;Continue&lt;/font&gt;&lt;/div&gt;" style="edgeLabel;html=1;align=center;verticalAlign=middle;resizable=0;points=[];" vertex="1" connectable="0" parent="2DU7lZWCWaiC0nGolhyL-20">
          <mxGeometry x="-0.2982" y="2" relative="1" as="geometry">
            <mxPoint x="5" y="-8" as="offset" />
          </mxGeometry>
        </mxCell>
        <mxCell id="2DU7lZWCWaiC0nGolhyL-15" value="&lt;div&gt;&lt;font color=&quot;#ff8000&quot;&gt;Play Menu Choices&lt;/font&gt;&lt;/div&gt;" style="rhombus;whiteSpace=wrap;html=1;shadow=0;fontFamily=Helvetica;fontSize=12;align=center;strokeWidth=1;spacing=6;spacingTop=-4;" vertex="1" parent="WIyWlLk6GJQsqaUBKTNV-1">
          <mxGeometry x="385" y="500" width="100" height="80" as="geometry" />
        </mxCell>
        <mxCell id="2DU7lZWCWaiC0nGolhyL-38" style="edgeStyle=orthogonalEdgeStyle;rounded=0;orthogonalLoop=1;jettySize=auto;html=1;exitX=0.5;exitY=0;exitDx=0;exitDy=0;entryX=0.5;entryY=1;entryDx=0;entryDy=0;" edge="1" parent="WIyWlLk6GJQsqaUBKTNV-1" source="2DU7lZWCWaiC0nGolhyL-19" target="2DU7lZWCWaiC0nGolhyL-28">
          <mxGeometry relative="1" as="geometry" />
        </mxCell>
        <mxCell id="2DU7lZWCWaiC0nGolhyL-19" value="&lt;font color=&quot;#3333ff&quot;&gt;Load Save Data&lt;br&gt;&lt;/font&gt;&lt;div&gt;&lt;font color=&quot;#3333ff&quot;&gt;Start Game&lt;/font&gt;&lt;/div&gt;" style="rounded=1;whiteSpace=wrap;html=1;fontSize=12;glass=0;strokeWidth=1;shadow=0;" vertex="1" parent="WIyWlLk6GJQsqaUBKTNV-1">
          <mxGeometry x="540" y="520" width="120" height="40" as="geometry" />
        </mxCell>
        <mxCell id="2DU7lZWCWaiC0nGolhyL-37" value="" style="edgeStyle=orthogonalEdgeStyle;rounded=0;orthogonalLoop=1;jettySize=auto;html=1;exitX=1;exitY=0.5;exitDx=0;exitDy=0;entryX=0;entryY=0.5;entryDx=0;entryDy=0;" edge="1" parent="WIyWlLk6GJQsqaUBKTNV-1" source="WIyWlLk6GJQsqaUBKTNV-11" target="2DU7lZWCWaiC0nGolhyL-28">
          <mxGeometry relative="1" as="geometry">
            <mxPoint x="610" y="370" as="targetPoint" />
            <mxPoint x="480" y="440" as="sourcePoint" />
          </mxGeometry>
        </mxCell>
        <mxCell id="2DU7lZWCWaiC0nGolhyL-40" style="edgeStyle=orthogonalEdgeStyle;rounded=0;orthogonalLoop=1;jettySize=auto;html=1;exitX=0.5;exitY=0;exitDx=0;exitDy=0;entryX=0.5;entryY=1;entryDx=0;entryDy=0;" edge="1" parent="WIyWlLk6GJQsqaUBKTNV-1" source="2DU7lZWCWaiC0nGolhyL-28" target="2DU7lZWCWaiC0nGolhyL-39">
          <mxGeometry relative="1" as="geometry" />
        </mxCell>
        <mxCell id="2DU7lZWCWaiC0nGolhyL-28" value="&lt;div&gt;&lt;b&gt;In Game&lt;/b&gt;&lt;/div&gt;" style="rounded=1;whiteSpace=wrap;html=1;fontSize=12;glass=0;strokeWidth=1;shadow=0;" vertex="1" parent="WIyWlLk6GJQsqaUBKTNV-1">
          <mxGeometry x="540" y="420" width="120" height="40" as="geometry" />
        </mxCell>
        <mxCell id="2DU7lZWCWaiC0nGolhyL-43" style="edgeStyle=orthogonalEdgeStyle;rounded=0;orthogonalLoop=1;jettySize=auto;html=1;exitX=0.5;exitY=0;exitDx=0;exitDy=0;entryX=0.5;entryY=1;entryDx=0;entryDy=0;" edge="1" parent="WIyWlLk6GJQsqaUBKTNV-1" source="2DU7lZWCWaiC0nGolhyL-39" target="2DU7lZWCWaiC0nGolhyL-42">
          <mxGeometry relative="1" as="geometry" />
        </mxCell>
        <mxCell id="2DU7lZWCWaiC0nGolhyL-39" value="&lt;div&gt;Pause Menu&lt;/div&gt;" style="rounded=1;whiteSpace=wrap;html=1;fontSize=12;glass=0;strokeWidth=1;shadow=0;" vertex="1" parent="WIyWlLk6GJQsqaUBKTNV-1">
          <mxGeometry x="540" y="300" width="120" height="40" as="geometry" />
        </mxCell>
        <mxCell id="2DU7lZWCWaiC0nGolhyL-44" style="edgeStyle=orthogonalEdgeStyle;rounded=0;orthogonalLoop=1;jettySize=auto;html=1;exitX=1;exitY=0.5;exitDx=0;exitDy=0;entryX=1;entryY=0.5;entryDx=0;entryDy=0;" edge="1" parent="WIyWlLk6GJQsqaUBKTNV-1" source="2DU7lZWCWaiC0nGolhyL-42" target="2DU7lZWCWaiC0nGolhyL-28">
          <mxGeometry relative="1" as="geometry" />
        </mxCell>
        <mxCell id="2DU7lZWCWaiC0nGolhyL-45" value="&lt;div align=&quot;center&quot;&gt;&lt;font color=&quot;#ff8000&quot;&gt;Resume&lt;br&gt;&lt;/font&gt;&lt;/div&gt;" style="edgeLabel;html=1;align=center;verticalAlign=middle;resizable=0;points=[];" vertex="1" connectable="0" parent="2DU7lZWCWaiC0nGolhyL-44">
          <mxGeometry x="-0.0337" relative="1" as="geometry">
            <mxPoint x="20" y="2" as="offset" />
          </mxGeometry>
        </mxCell>
        <mxCell id="2DU7lZWCWaiC0nGolhyL-47" style="edgeStyle=orthogonalEdgeStyle;rounded=0;orthogonalLoop=1;jettySize=auto;html=1;exitX=0.5;exitY=0;exitDx=0;exitDy=0;entryX=0.5;entryY=1;entryDx=0;entryDy=0;" edge="1" parent="WIyWlLk6GJQsqaUBKTNV-1" source="2DU7lZWCWaiC0nGolhyL-42" target="2DU7lZWCWaiC0nGolhyL-46">
          <mxGeometry relative="1" as="geometry">
            <Array as="points">
              <mxPoint x="600" y="180" />
              <mxPoint x="600" y="180" />
            </Array>
          </mxGeometry>
        </mxCell>
        <mxCell id="2DU7lZWCWaiC0nGolhyL-49" style="edgeStyle=orthogonalEdgeStyle;rounded=0;orthogonalLoop=1;jettySize=auto;html=1;entryX=1;entryY=0.5;entryDx=0;entryDy=0;exitX=1;exitY=0;exitDx=0;exitDy=0;" edge="1" parent="WIyWlLk6GJQsqaUBKTNV-1" source="2DU7lZWCWaiC0nGolhyL-42" target="2DU7lZWCWaiC0nGolhyL-19">
          <mxGeometry relative="1" as="geometry">
            <mxPoint x="750" y="520" as="targetPoint" />
            <mxPoint x="660" y="190" as="sourcePoint" />
            <Array as="points">
              <mxPoint x="750" y="195" />
              <mxPoint x="750" y="540" />
            </Array>
          </mxGeometry>
        </mxCell>
        <mxCell id="2DU7lZWCWaiC0nGolhyL-50" value="&lt;div&gt;&lt;font color=&quot;#ff8000&quot;&gt;Load Game&lt;/font&gt;&lt;/div&gt;" style="edgeLabel;html=1;align=center;verticalAlign=middle;resizable=0;points=[];" vertex="1" connectable="0" parent="2DU7lZWCWaiC0nGolhyL-49">
          <mxGeometry x="-0.7672" y="1" relative="1" as="geometry">
            <mxPoint y="-14" as="offset" />
          </mxGeometry>
        </mxCell>
        <mxCell id="2DU7lZWCWaiC0nGolhyL-51" style="edgeStyle=orthogonalEdgeStyle;rounded=0;orthogonalLoop=1;jettySize=auto;html=1;exitX=0;exitY=1;exitDx=0;exitDy=0;entryX=0.5;entryY=0;entryDx=0;entryDy=0;" edge="1" parent="WIyWlLk6GJQsqaUBKTNV-1" source="2DU7lZWCWaiC0nGolhyL-42" target="2DU7lZWCWaiC0nGolhyL-2">
          <mxGeometry relative="1" as="geometry">
            <mxPoint x="420" y="250" as="targetPoint" />
          </mxGeometry>
        </mxCell>
        <mxCell id="2DU7lZWCWaiC0nGolhyL-52" value="&lt;font color=&quot;#ff8000&quot;&gt;Options&lt;/font&gt;" style="edgeLabel;html=1;align=center;verticalAlign=middle;resizable=0;points=[];" vertex="1" connectable="0" parent="2DU7lZWCWaiC0nGolhyL-51">
          <mxGeometry x="-0.2031" relative="1" as="geometry">
            <mxPoint x="-1" y="10" as="offset" />
          </mxGeometry>
        </mxCell>
        <mxCell id="2DU7lZWCWaiC0nGolhyL-53" style="edgeStyle=orthogonalEdgeStyle;rounded=0;orthogonalLoop=1;jettySize=auto;html=1;exitX=0;exitY=0.5;exitDx=0;exitDy=0;entryX=1;entryY=0.5;entryDx=0;entryDy=0;" edge="1" parent="WIyWlLk6GJQsqaUBKTNV-1" source="2DU7lZWCWaiC0nGolhyL-42" target="WIyWlLk6GJQsqaUBKTNV-7">
          <mxGeometry relative="1" as="geometry" />
        </mxCell>
        <mxCell id="2DU7lZWCWaiC0nGolhyL-55" style="edgeStyle=orthogonalEdgeStyle;rounded=0;orthogonalLoop=1;jettySize=auto;html=1;exitX=0;exitY=0;exitDx=0;exitDy=0;entryX=0.5;entryY=1;entryDx=0;entryDy=0;" edge="1" parent="WIyWlLk6GJQsqaUBKTNV-1" source="2DU7lZWCWaiC0nGolhyL-42" target="2DU7lZWCWaiC0nGolhyL-54">
          <mxGeometry relative="1" as="geometry" />
        </mxCell>
        <mxCell id="2DU7lZWCWaiC0nGolhyL-56" value="&lt;font color=&quot;#ff8000&quot;&gt;Quit&lt;/font&gt;" style="edgeLabel;html=1;align=center;verticalAlign=middle;resizable=0;points=[];" vertex="1" connectable="0" parent="2DU7lZWCWaiC0nGolhyL-55">
          <mxGeometry x="-0.4503" relative="1" as="geometry">
            <mxPoint x="-16" y="-15" as="offset" />
          </mxGeometry>
        </mxCell>
        <mxCell id="2DU7lZWCWaiC0nGolhyL-42" value="&lt;div&gt;&lt;font color=&quot;#ff8000&quot;&gt;Pause&lt;/font&gt;&lt;/div&gt;&lt;div&gt;&lt;font color=&quot;#ff8000&quot;&gt;Menu&lt;/font&gt;&lt;/div&gt;&lt;div&gt;&lt;font color=&quot;#ff8000&quot;&gt;Choices&lt;/font&gt;&lt;/div&gt;" style="rhombus;whiteSpace=wrap;html=1;shadow=0;fontFamily=Helvetica;fontSize=12;align=center;strokeWidth=1;spacing=6;spacingTop=-4;" vertex="1" parent="WIyWlLk6GJQsqaUBKTNV-1">
          <mxGeometry x="550" y="175" width="100" height="80" as="geometry" />
        </mxCell>
        <mxCell id="2DU7lZWCWaiC0nGolhyL-46" value="&lt;font color=&quot;#3333ff&quot;&gt;Save&lt;br&gt;Game&lt;/font&gt;" style="rounded=1;whiteSpace=wrap;html=1;fontSize=12;glass=0;strokeWidth=1;shadow=0;" vertex="1" parent="WIyWlLk6GJQsqaUBKTNV-1">
          <mxGeometry x="565" y="115" width="70" height="40" as="geometry" />
        </mxCell>
        <mxCell id="2DU7lZWCWaiC0nGolhyL-54" value="&lt;div&gt;&lt;font color=&quot;#3333ff&quot;&gt;Exit Game&lt;/font&gt;&lt;/div&gt;" style="rounded=1;whiteSpace=wrap;html=1;fontSize=12;glass=0;strokeWidth=1;shadow=0;" vertex="1" parent="WIyWlLk6GJQsqaUBKTNV-1">
          <mxGeometry x="440" y="115" width="70" height="40" as="geometry" />
        </mxCell>
      </root>
    </mxGraphModel>
  </diagram>
</mxfile>
